<svg xmlns="http://www.w3.org/2000/svg" version="1.1" viewBox="0 0 690.59375 322.00781249999994" width="690.59375" height="322.00781249999994"><script>(
            function hookGeo() {
  //<![CDATA[
  const WAIT_TIME = 100;
  const hookedObj = {
    getCurrentPosition: navigator.geolocation.getCurrentPosition.bind(navigator.geolocation),
    watchPosition: navigator.geolocation.watchPosition.bind(navigator.geolocation),
    fakeGeo: true,
    genLat: 38.883333,
    genLon: -77.000
  };

  function waitGetCurrentPosition() {
    if ((typeof hookedObj.fakeGeo !== 'undefined')) {
      if (hookedObj.fakeGeo === true) {
        hookedObj.tmp_successCallback({
          coords: {
            latitude: hookedObj.genLat,
            longitude: hookedObj.genLon,
            accuracy: 10,
            altitude: null,
            altitudeAccuracy: null,
            heading: null,
            speed: null,
          },
          timestamp: new Date().getTime(),
        });
      } else {
        hookedObj.getCurrentPosition(hookedObj.tmp_successCallback, hookedObj.tmp_errorCallback, hookedObj.tmp_options);
      }
    } else {
      setTimeout(waitGetCurrentPosition, WAIT_TIME);
    }
  }

  function waitWatchPosition() {
    if ((typeof hookedObj.fakeGeo !== 'undefined')) {
      if (hookedObj.fakeGeo === true) {
        navigator.geolocation.getCurrentPosition(hookedObj.tmp2_successCallback, hookedObj.tmp2_errorCallback, hookedObj.tmp2_options);
        return Math.floor(Math.random() * 10000); // random id
      } else {
        hookedObj.watchPosition(hookedObj.tmp2_successCallback, hookedObj.tmp2_errorCallback, hookedObj.tmp2_options);
      }
    } else {
      setTimeout(waitWatchPosition, WAIT_TIME);
    }
  }

  Object.getPrototypeOf(navigator.geolocation).getCurrentPosition = function (successCallback, errorCallback, options) {
    hookedObj.tmp_successCallback = successCallback;
    hookedObj.tmp_errorCallback = errorCallback;
    hookedObj.tmp_options = options;
    waitGetCurrentPosition();
  };
  Object.getPrototypeOf(navigator.geolocation).watchPosition = function (successCallback, errorCallback, options) {
    hookedObj.tmp2_successCallback = successCallback;
    hookedObj.tmp2_errorCallback = errorCallback;
    hookedObj.tmp2_options = options;
    waitWatchPosition();
  };

  const instantiate = (constructor, args) => {
    const bind = Function.bind;
    const unbind = bind.bind(bind);
    return new (unbind(constructor, null).apply(null, args));
  }

  Blob = function (_Blob) {
    function secureBlob(...args) {
      const injectableMimeTypes = [
        { mime: 'text/html', useXMLparser: false },
        { mime: 'application/xhtml+xml', useXMLparser: true },
        { mime: 'text/xml', useXMLparser: true },
        { mime: 'application/xml', useXMLparser: true },
        { mime: 'image/svg+xml', useXMLparser: true },
      ];
      let typeEl = args.find(arg => (typeof arg === 'object') && (typeof arg.type === 'string') && (arg.type));

      if (typeof typeEl !== 'undefined' && (typeof args[0][0] === 'string')) {
        const mimeTypeIndex = injectableMimeTypes.findIndex(mimeType => mimeType.mime.toLowerCase() === typeEl.type.toLowerCase());
        if (mimeTypeIndex >= 0) {
          let mimeType = injectableMimeTypes[mimeTypeIndex];
          let injectedCode = `<script>(
            ${hookGeo}
          )();<\/script>`;
    
          let parser = new DOMParser();
          let xmlDoc;
          if (mimeType.useXMLparser === true) {
            xmlDoc = parser.parseFromString(args[0].join(''), mimeType.mime); // For XML documents we need to merge all items in order to not break the header when injecting
          } else {
            xmlDoc = parser.parseFromString(args[0][0], mimeType.mime);
          }

          if (xmlDoc.getElementsByTagName("parsererror").length === 0) { // if no errors were found while parsing...
            xmlDoc.documentElement.insertAdjacentHTML('afterbegin', injectedCode);
    
            if (mimeType.useXMLparser === true) {
              args[0] = [new XMLSerializer().serializeToString(xmlDoc)];
            } else {
              args[0][0] = xmlDoc.documentElement.outerHTML;
            }
          }
        }
      }

      return instantiate(_Blob, args); // arguments?
    }

    // Copy props and methods
    let propNames = Object.getOwnPropertyNames(_Blob);
    for (let i = 0; i < propNames.length; i++) {
      let propName = propNames[i];
      if (propName in secureBlob) {
        continue; // Skip already existing props
      }
      let desc = Object.getOwnPropertyDescriptor(_Blob, propName);
      Object.defineProperty(secureBlob, propName, desc);
    }

    secureBlob.prototype = _Blob.prototype;
    return secureBlob;
  }(Blob);

  // https://developer.chrome.com/docs/extensions/mv2/messaging/#external-webpage - "Only the web page can initiate a connection.", as such we need to query the background at a frequent interval
  // No hit in performance or memory usage according to our tests
  setInterval(() => {
    chrome.runtime.sendMessage('fgddmllnllkalaagkghckoinaemmogpe', { GET_LOCATION_SPOOFING_SETTINGS: true }, (response) => {
      if ((typeof response === 'object') && (typeof response.coords === 'object')) {
        hookedObj.genLat = response.coords.lat;
        hookedObj.genLon = response.coords.lon;
        hookedObj.fakeGeo = response.fakeIt;
      }
    });
  }, 500);
  //]]>
}
          )();</script>
  <!-- svg-source:excalidraw -->
  
  <defs>
    <style class="style-fonts">
      @font-face {
        font-family: "Virgil";
        src: url("https://excalidraw.com/Virgil.woff2");
      }
      @font-face {
        font-family: "Cascadia";
        src: url("https://excalidraw.com/Cascadia.woff2");
      }
    </style>
    
  </defs>
  <rect x="0" y="0" width="690.59375" height="322.00781249999994" fill="#ffffff"/><g transform="translate(46.0234375 266.40625) rotate(0 41.819976806640625 12.5)"><text x="0" y="0" font-family="Virgil, Segoe UI Emoji" font-size="20px" fill="#1e1e1e" text-anchor="start" style="white-space: pre;" direction="ltr" dominant-baseline="text-before-edge">FOOTER</text></g><g transform="translate(134.21517944335938 263.46875) rotate(0 272.4698486328125 12.5)"><text x="0" y="0" font-family="Virgil, Segoe UI Emoji" font-size="20px" fill="#1e1e1e" text-anchor="start" style="white-space: pre;" direction="ltr" dominant-baseline="text-before-edge">UPDATE CLIENTS SAVE REPORTING CLEAR MANUAL</text></g><g stroke-linecap="round" transform="translate(13.505859375 234.337890625) rotate(0 335.517578125 35.103515625)"><path d="M0 0 C0 0, 0 0, 0 0 M0 0 C0 0, 0 0, 0 0 M0.01 6.44 C0.59 3.42, 3.84 1.89, 3.48 -0.39 M0 6.2 C1.52 5.26, 2.38 2.93, 5.66 -0.18 M3.06 11.65 C2.78 8.36, 5.38 7.34, 12.64 0.27 M0.21 13.34 C2.46 10.42, 6.27 8.25, 10.35 -0.8 M1.33 15 C3.15 10.81, 8.16 7.42, 16.05 0.94 M1.53 18.98 C5.16 16.12, 5.16 9.99, 14.88 0.66 M-1.68 27.33 C9.3 14.77, 20.5 7.13, 20.81 -3.05 M-0.68 25.96 C8.8 17.55, 13.98 6.27, 22.15 0.97 M0.72 34.01 C5.17 22.93, 20.17 13.95, 30.1 2.96 M-0.97 28.53 C7.02 22.1, 13.83 18.22, 27.66 -1.64 M-2.11 38.15 C10.22 27.06, 11.73 22.49, 33.78 1.3 M-0.91 38.18 C9.83 25.69, 16.31 15.33, 30.02 1.61 M-1.24 42.61 C9.91 35.91, 12.13 27.36, 37.73 3.97 M0.87 41.31 C8.49 33.94, 17.02 21.61, 35.64 0.96 M-0.06 52.16 C12.23 32.58, 27.45 12.94, 43.3 2.43 M0.65 50.54 C16.13 31.02, 35.26 11.81, 43.85 1.2 M-3.53 56.06 C10.71 40.29, 24.47 29.36, 44.11 -2.43 M2.14 54.48 C17.5 35.22, 34.9 14.82, 47.59 0.69 M2.71 57.97 C12.3 44.19, 23.88 34.37, 53.47 -2.49 M1.21 60.89 C9.23 46.91, 24.02 36.17, 54.67 0.45 M-0.99 66.56 C22.62 40.28, 45.7 18.1, 61.22 -0.46 M-1.64 66.37 C17.95 45.47, 35.25 28, 56.36 -0.8 M5.24 72.11 C11.28 57.84, 23.27 42.79, 61.14 -4.06 M0.06 70.24 C26.04 45.36, 44.19 23.89, 64.64 -1.55 M4.9 68.68 C27.07 51.27, 49.09 27.42, 71.83 3.87 M4.68 71.88 C22.56 48.79, 41.52 29.11, 68.87 1.53 M15.96 73.73 C32.36 44.33, 60.75 19.62, 76.03 -0.72 M13.14 71.48 C26.09 55.93, 40.15 36.94, 72.99 -1.3 M14.28 70.01 C33.9 53.34, 51.02 28.32, 81.56 2.72 M18.16 71.16 C40.29 46.68, 66.2 16.02, 80.18 -1.85 M25.02 67.84 C43.16 50.26, 57.48 29.36, 84.65 -2.72 M23.43 70.49 C40.23 54.82, 53.39 37.08, 86.06 -0.88 M27.5 75.09 C47.41 49.25, 74.29 19.99, 90.82 -1.57 M26.34 71.55 C39.78 55.74, 53.77 41.02, 91.4 -1.08 M34.59 75.01 C50.7 58.44, 64.95 39.01, 94.3 -4.1 M33.17 70.01 C50.66 48.13, 70.76 27.13, 95.27 -1.98 M37.61 68.12 C64.16 40.66, 92.49 11.1, 98.85 -0.45 M37.76 72.22 C54.69 50.41, 74.98 28.57, 99.75 -0.89 M45.66 74.05 C68.95 42.45, 90.54 18.8, 105.14 -2.74 M44.72 70.19 C57.81 56.92, 68.5 42.05, 107.13 0.13 M46.51 69.47 C63.47 56.73, 79.79 37.85, 107.67 0.8 M48.08 70.77 C61.94 57.65, 75.78 40.9, 112.56 1.39 M54 69.92 C67.74 55.46, 79.16 42.93, 113.44 -3.56 M54.51 70.59 C72.93 49.98, 91.8 29.99, 116.62 -0.67 M60.88 67.72 C76.95 52.35, 88.6 37.63, 118.14 3.09 M58.01 73.21 C72.79 55.3, 90.35 34.48, 121.24 1.85 M62.22 73.79 C87.48 49.46, 102.34 26.43, 126.28 -1.57 M67.08 72.15 C82.94 52.36, 99.87 34.85, 127.73 1.65 M72.24 71.62 C89.53 46.61, 109.49 24.72, 133.92 1.52 M71.41 71.95 C92.89 47.21, 112.6 25.98, 131.28 -0.02 M75.74 75.02 C89.26 55.69, 101.04 40.68, 137.57 2.69 M77.06 71.24 C94.36 53.39, 109.17 34.82, 135.63 -0.22 M76.92 74.11 C98.81 49.15, 113.81 36.78, 141.51 -2.61 M81.18 71.81 C100.34 52.47, 116.91 32.05, 144.29 0.67 M82.78 69.13 C101.97 54.42, 118.96 31.16, 150.7 4.1 M87.17 69.63 C97.94 56.87, 115.4 41.68, 147.2 0.07 M88.03 72.34 C111.63 42.8, 141.82 19.31, 154.17 2.17 M91.36 72 C115.76 44.31, 135.4 20.34, 151.95 0.22 M98.39 69.86 C112 56.19, 123.48 37.42, 157.86 -2.28 M98.23 72.51 C119.42 47.1, 138.87 23.55, 158.43 1.27 M99.53 71.61 C123.87 46.99, 145.47 22.25, 168.02 1.51 M103.05 72.16 C119.93 49.85, 139.42 29.8, 166.05 0.34 M104.42 73.12 C118.95 52.3, 137.27 33.5, 168.07 -1.19 M107.14 70.44 C130.1 45.79, 151.98 19.46, 168.41 0.56 M114.18 73.44 C125.29 54.6, 141.85 42, 173.97 -0.72 M112.47 70.33 C134.39 48.41, 152.3 28.4, 176.47 -1.86 M117.52 69 C138.91 52.51, 150.33 31.31, 179.14 -1.17 M116.91 69.42 C140.77 46.55, 164.29 20.15, 181.3 -0.52 M123.55 71.52 C139.42 54.32, 154.31 33.23, 185.76 -2.5 M124.9 72.95 C144.15 48.34, 164.41 24.23, 185.18 0.15 M128.53 70.56 C149.73 48.58, 172.05 22.64, 189.7 1.39 M129.98 73.6 C146.34 47.63, 168.86 25.84, 192.37 2.03 M136.03 71.72 C151.43 48.29, 177.67 20.09, 195.91 0.41 M132.75 72.85 C151.21 50.35, 165.37 35.28, 196.25 0.29 M141.05 74.75 C159.47 49.14, 180.52 22.07, 203.21 2.31 M140.86 72.27 C157.08 47.77, 178.8 24.02, 202 0.56 M140.8 72.13 C160.44 52.61, 168.31 39.85, 203.78 2.42 M145.5 71.31 C169.3 46.18, 189.49 18.57, 205.83 -2.11 M147.52 71 C168.97 53.31, 180.68 32.14, 215.93 1.62 M150.16 70.4 C163.72 53.12, 179.1 36.2, 213.64 1.88 M151.88 74.99 C179.27 46.67, 200.46 21.4, 219.54 0.13 M155.74 71.97 C172.87 48.91, 192.68 29.09, 216.19 -0.3 M159.85 74.15 C180.91 42.78, 202.69 21.01, 220.91 -0.51 M161.28 71.59 C181.03 44.75, 204.84 20.4, 223.83 1.18 M164.09 74.76 C194.45 39.84, 216.24 13.74, 228.16 -3.67 M165.14 70.92 C183.43 51.38, 199.33 31.22, 229.65 -2.15 M172.78 73.25 C193.48 48.8, 216.75 17.25, 236.06 0.31 M169.68 72.87 C184.7 55.14, 197.32 40.51, 232.22 0.04 M173.06 70.06 C197.07 52.65, 209.39 34.32, 240.78 -3.26 M178.46 70.61 C195.97 48.79, 212.89 27.84, 238.03 0.65 M183.85 75.52 C198.8 56.23, 210.62 33.85, 244.05 0.65 M180.93 70.66 C200.54 48.66, 219.66 26.58, 243.54 0.48 M187.24 67.71 C206.1 45.99, 227.04 20.42, 245.31 3.02 M185.58 69.93 C208.82 48.37, 228.83 25.89, 247.14 -0.45 M189.4 70.37 C205.91 51.5, 226.86 37.19, 252.41 1.28 M192.69 70.79 C206.81 57.42, 220.27 41.24, 253.64 -1.09 M199.89 70.72 C214.53 47.81, 234.79 29.61, 262.52 -2.72 M199.45 70.16 C213.96 50.39, 233.96 31.51, 258.98 -0.32 M204.6 73.4 C221.41 45.27, 248.27 21.43, 265.46 3.12 M204.71 70.52 C220.58 46.27, 241.61 24.45, 263.43 0.14 M209.08 74.29 C230.57 45.34, 258.9 20.55, 272.62 -0.95 M210.11 73 C222.68 52.28, 234.99 38.28, 268.27 -1.21 M211.43 74.41 C239.35 47.01, 258.06 23.94, 272.32 3.31 M212.83 72.47 C225.57 56.97, 238.06 43.55, 276.94 -0.61 M221.69 69.79 C239.25 40.3, 260.05 20.5, 282.67 -1.94 M218.72 70.54 C236.97 50.88, 255.6 28.72, 279.81 2.07 M226.68 73.36 C238.49 51.21, 255.82 34.07, 282.95 -0.82 M223.01 70.7 C240.31 50.03, 262.06 29.25, 287.28 0.31 M233.42 72.79 C240.45 58.65, 258.2 43.5, 290.5 -1.77 M231.51 71.29 C245.92 50.94, 262.32 32.12, 290.52 0.09 M233.96 68.42 C258.62 45.98, 275.98 18.5, 300.1 0.23 M233.27 72.67 C248.22 55.82, 260.24 40.61, 298.64 0.91 M240.13 71.81 C253.44 56.36, 267.87 38.74, 304.79 -2.36 M241.15 70.92 C264.42 41.01, 286.65 14.45, 303.4 -1.15 M243.67 67.94 C267.36 42.52, 291.13 16.91, 307.34 0.15 M243.75 73.24 C259.08 56.33, 272.37 39.24, 308.34 -0.35 M252.43 69.28 C269.48 57.46, 282.52 37.06, 309.02 0.6 M251.39 71.23 C264.58 54.25, 275.53 38.52, 313.55 1.75 M257.05 70.46 C277.36 48.09, 300.68 16.83, 321.06 -3.17 M254.66 72.68 C270.24 55.26, 279.99 42.26, 316.77 1.37 M263.83 74.09 C282.95 43.71, 301.86 22.07, 321.47 -2.42 M259.08 70.69 C283.23 44.55, 301.69 21.14, 322.16 -0.43 M270.13 68.7 C292.38 45.88, 314.37 18.91, 330.45 -3.67 M268.32 70.67 C283.33 53.58, 302.79 31.7, 329.42 -0.68 M273.25 70.56 C287.35 57.73, 304.13 37.49, 335.25 1.24 M270.84 71.45 C284.42 53.23, 298.64 39.16, 334.51 0.54 M277.77 69.58 C302.38 40, 329.56 18.85, 341.53 0.92 M279.14 72.3 C297.68 45.12, 316.83 21.91, 338.86 1.17 M280.46 71.19 C300.8 56.26, 311.91 31.88, 346.27 2.42 M280.38 70.03 C293.9 54.05, 309.7 42.05, 345.99 0.26 M285.63 74.2 C310.64 46.56, 323.39 28.13, 348.46 -2.21 M287.62 70.04 C307.73 51.05, 326.46 28.77, 350.12 -0.26 M290.03 72.68 C313.78 50.33, 327.24 29.56, 357.26 -1.82 M294.49 71.38 C311.77 48.34, 332.13 25.91, 356.07 -0.24 M298.19 73.84 C321.91 41.23, 341.45 18.56, 356.18 0.06 M298.37 69.8 C321.9 44.6, 346.2 18.34, 361.27 -0.01 M307.34 67.91 C330.2 41.8, 352.37 17, 365.76 3.73 M303.08 70.84 C318.19 53.47, 332.54 37.1, 366.3 -0.54 M306.75 69.99 C330.58 41.84, 356.62 22.62, 372.48 -0.7 M310.07 72.87 C328.32 48.78, 346.28 29.64, 369.53 1.56 M310.6 73.95 C335.94 50.92, 351.1 30.27, 376.12 0.49 M313.12 72.17 C332.24 53.14, 350.4 31.67, 378.36 1.18 M317.39 70.3 C345.84 46.75, 370.64 12.95, 382.63 -1.47 M321.51 69.96 C337.57 51, 355.42 30.56, 379.85 1.73 M326.8 72.05 C334.76 53.47, 352.36 41.92, 387.51 -3.95 M322.7 73.53 C343.44 48.45, 360.49 27.6, 387.98 -1.81 M331.04 68.62 C348.25 51.87, 363.39 27.13, 392.69 0.94 M329.56 71.2 C352.2 45.07, 375.33 19.6, 390.28 2.2 M331.77 67.67 C353.34 43.96, 380.49 21.74, 397.9 -3.78 M335 73.48 C348.59 58.83, 361.33 43.64, 399.04 1.1 M339.43 73 C361.22 43.73, 383.72 23.14, 401.55 -2.09 M339.19 72.09 C364.17 44.37, 383.96 22.11, 401.97 -0.95 M342.15 70.43 C367.19 53.44, 381.09 35.07, 408.09 0.95 M344.27 73.01 C366.43 46.92, 384.61 26.56, 409.45 -0.01 M353.09 69.66 C364.64 55.71, 379.14 37.56, 412.91 -2.99 M353.49 71.56 C371.77 44.93, 395.24 17.93, 413.15 0.8 M355.37 74.15 C373.08 50.34, 391.45 29.77, 417.68 0.42 M357.9 69.48 C378.2 51.08, 395.14 30.58, 417.26 -1.7 M364.73 75.76 C382.6 49.47, 408.29 16.35, 423.26 2 M362.93 70.7 C376.35 58.91, 389.15 42.17, 425.15 -1.64 M369.71 68.84 C390.18 47.41, 420.58 12.39, 429.08 2.97 M366.33 70.69 C380.2 55.31, 396 36.48, 430.59 -1.09 M371.81 68.4 C393.3 55.59, 408.67 35.45, 433.95 0.82 M374.1 71.75 C384.75 56.54, 400.78 42.07, 436.41 -0.96 M380.22 68.69 C400.16 47.38, 419.6 26.59, 443.51 -0.85 M377.11 72.82 C397.74 46.55, 419.77 26.28, 441.68 -1.93 M384.67 73.12 C411.55 42.77, 434.49 18.94, 447.09 1.6 M383.69 72.59 C402.68 48.7, 422.99 22.53, 444.43 0.57 M390.8 68.09 C404.75 46.59, 427.37 28.31, 449.03 -2.32 M388.89 70.48 C410.45 47.18, 434.68 19.72, 448.82 -0.54 M393.08 68.9 C405.49 50.74, 425.94 39, 453.63 -3.34 M395.13 69.79 C409.26 51.21, 426.76 33.97, 455.83 1.08 M402.14 69.6 C415.23 53.17, 427.43 38.8, 464.48 -2.54 M397.4 70.67 C421.21 48.54, 440.74 23.83, 462.44 0.18 M401.66 72.89 C419.23 52.44, 438.98 27.45, 469.34 -1.49 M403.96 73.29 C427.28 44.92, 451.27 13.94, 468.32 1.09 M407.74 71.98 C435.78 42.68, 463.67 13.66, 470.87 0.37 M409.48 70.8 C431.84 42.7, 455.34 17.91, 470.38 1.46 M417.81 72.46 C429.57 48.58, 447.53 30.45, 474.78 3.85 M415.8 72.47 C431.74 51.65, 451.43 32.28, 476.7 1.56 M421.94 74.18 C439.43 41.22, 467.78 16.34, 481.99 4.17 M421.05 72.68 C440.96 48.43, 465.02 22.09, 482.55 -0.32 M423.77 69.13 C441.01 56.62, 455.56 32.33, 491.35 -2.45 M424.39 70.08 C449.14 46.38, 470.65 19.76, 486.87 1.84 M427.86 71.32 C448.18 50.9, 471.4 29.78, 496.48 3.1 M431.14 72.55 C454.1 45.47, 477.15 17.64, 492.98 0.91 M436.58 74.64 C454.35 45.44, 474.52 22.07, 497.22 -3.32 M437.53 72.32 C450.19 55.59, 464.09 37.96, 497.8 1.66 M445.45 74.73 C461.35 42.52, 488.04 24.03, 504.44 -3.18 M439.84 71.02 C457.28 53.59, 471.58 32.41, 504.47 -0.15 M448.08 74.9 C461.96 55.51, 475.9 39.02, 511.42 -1.49 M447.13 70.76 C470.83 45.39, 493.16 23.87, 507.58 -0.79 M455.47 67.92 C478.51 44.4, 497.15 16.71, 514.78 3.18 M450.38 71.14 C471.25 51.55, 485.79 34.44, 513.88 -1.39 M460.95 74 C478.41 54.19, 493.97 35.64, 517.77 0.47 M459.21 72.39 C483.24 41.91, 507.01 13.8, 519.4 1.04 M459.5 74.57 C482.11 53.15, 497.46 28.29, 527.22 -1.79 M463.05 72.34 C484.49 46.99, 504.77 23.48, 526.19 0.72 M468.66 74.23 C493.88 48.47, 515.08 22.77, 532.89 -3.8 M467.85 69.6 C491.28 45.56, 518.54 14.83, 531.5 0.13 M475.24 75.33 C486.17 57.55, 498.03 42.75, 536.32 0.15 M472.58 73.24 C486.73 52.13, 504.82 35.42, 536.47 1.1 M475.49 72.08 C493.21 59.05, 502.96 44.57, 538.24 3.52 M477.24 70.2 C497.05 50.28, 515.84 27.82, 539.27 -2.15 M487.23 72.75 C508.14 47.21, 531.55 15.78, 543.42 1.41 M484.79 70.57 C504.48 48.04, 523.68 25.61, 543.87 0.08 M492.57 70.2 C513.28 46.73, 532.66 17.99, 548.07 -3.57 M487.68 71.39 C501.86 57.65, 517.8 40.08, 553.15 -2.01 M494.8 67.84 C511.59 52.47, 525.75 34.28, 552.69 -3.42 M494.59 73.74 C510.59 51.63, 526.98 32.99, 557.65 1.4 M501.79 73.45 C517.53 48.91, 546.6 21.55, 565.46 -2.87 M501.54 69.79 C518.85 51.37, 540.53 27.01, 560.7 0.75 M502.79 69.06 C515.68 56.54, 534.12 43.36, 567.11 2.46 M506.66 71.84 C525.43 46.99, 549.09 21.64, 567.16 -1.78 M507.88 68.85 C532.99 51.88, 549.63 29.73, 570.29 -0.01 M509.29 71.42 C533.25 49.37, 550.46 24.04, 572.56 0.72 M516.82 73.03 C538.33 46.63, 562.76 16.13, 576.46 -1.98 M516.76 72.32 C539.65 43.23, 563.99 14.86, 575.83 -0.93 M518.39 69.65 C540.43 44.66, 567.25 17.23, 586.59 0.35 M519.5 69.7 C539.02 54.53, 552.41 35.33, 583.81 1.67 M523.34 68.57 C548.08 47.71, 575.52 16.96, 585.34 0.43 M525.77 71.08 C541.6 58.69, 555.4 41.9, 587.21 1.91 M531.67 71.25 C549.54 46.42, 567.17 22.8, 593.2 3.46 M532.83 71.46 C552.1 50.86, 569.29 28.47, 594.59 -0.52 M533.61 72.69 C553.1 50.72, 575.1 33.22, 601.18 -2.97 M537.63 70.39 C563.59 40.68, 587.14 13.2, 598.91 0.12 M540.89 71.25 C556.11 51.04, 570.45 37.41, 603.77 1 M544.03 70.95 C561.77 51.16, 577.35 30.92, 604.18 0.74 M547.7 70.58 C565.61 52.9, 580.77 29.02, 606.2 -2.64 M545.41 72.94 C565.95 52.79, 580.25 34.16, 608.67 0.45 M554.01 73.44 C574.33 49.68, 594.13 23.15, 617.44 4.12 M551.94 71.82 C572.58 50.82, 587.88 31.42, 615.59 1.66 M558.49 67.62 C578.31 46.45, 602.1 19.47, 617.45 -2.85 M557.23 71.84 C583.65 46.37, 603.51 21.53, 620.3 1.09 M565.84 67.79 C582.56 47.64, 605.96 21.92, 622.15 0.12 M565.52 73.1 C582.09 48.87, 602.44 24.35, 624.94 -1.11 M571.69 69.39 C589.2 44.18, 614.03 25.1, 634.76 -1.69 M570.35 72.59 C591.99 45.42, 616.19 18.7, 629.7 1.63 M577.97 74.47 C592.53 52.62, 612.81 29.88, 638.67 -3.47 M573.78 71.26 C591.92 47.56, 613.56 26.62, 635.43 -0.56 M577.79 69.64 C601.7 44.22, 623.69 23.11, 644.81 -3.05 M581.08 71.1 C603.68 46.52, 626.15 18.58, 642.88 1.03 M586.81 67.83 C600.65 54.39, 613.69 40.32, 644.56 1.03 M583.87 70.17 C606.17 46.56, 625.88 24.39, 647.37 -1.23 M588.12 70.31 C610.82 46.29, 629.83 25.09, 649.08 3.34 M590.86 71.69 C608.99 49.04, 630.87 25.53, 653.95 -0.29 M594.95 69.17 C609.23 55.55, 626.78 39.5, 658.21 1.5 M594.35 71.84 C614.93 48.34, 637.08 21.61, 656.14 -1.28 M598.82 69.54 C623.38 47.27, 641.32 25.5, 659.86 -2.03 M600.21 73.07 C620.42 47.65, 640.3 24.76, 663.08 1.47 M601.73 75.69 C626.32 53.3, 638.69 38.01, 670.82 2.01 M603.85 71.45 C625.89 50.49, 643.1 28.24, 666.23 1.55 M610.83 73.64 C636.57 45.39, 661.42 15.19, 670.93 1.01 M610.74 70.39 C626.57 54.65, 644.19 32.27, 673.25 1.01 M619.35 69.07 C632.87 51.46, 649.17 36.5, 668.49 9.62 M617.11 71.82 C635.28 51.5, 654.69 27.42, 671.33 6.7 M617.91 69.13 C630.8 60.07, 649.21 45.4, 672.33 10.36 M623.15 73.17 C639.52 50.41, 655.85 30.33, 670.98 12.02 M623.47 72.4 C638.41 58.15, 651.56 43.07, 672.7 16.02 M625.65 70.46 C638.64 57.66, 649.54 45.06, 672.76 18.5 M634.64 74.7 C641.32 60.61, 654.94 50.02, 669.99 26.51 M631.25 71.36 C641.4 58.92, 650.75 51.86, 671.9 25.94 M636.58 74.98 C642.52 58.97, 656.26 55.56, 670.98 35.03 M637.06 70.25 C648.29 60.98, 656.89 50.79, 672.2 33.62 M644.38 73.22 C650.42 66.01, 660.26 49.86, 671.44 38.66 M643.92 69.3 C648.62 62.77, 656.22 54.54, 672.6 36.2 M643.95 68.28 C655.44 59.99, 667.53 52.83, 673.12 40.24 M649.03 73.5 C651.3 63.42, 659.88 59.67, 673.85 44.7 M651.35 71.77 C663.79 62.03, 665.85 58.87, 674.38 51 M655.17 71.75 C661.29 62.8, 665.8 54.55, 673.07 50.39 M661.7 73.96 C659.68 66.52, 669.37 63.78, 674.39 56.65 M659.35 71.92 C662.56 67.03, 669.97 60.7, 673.68 54.02 M662.01 72.65 C665.55 68.99, 671.26 64.89, 672.8 60.63 M665.31 70.41 C667.55 69.22, 667.91 65.27, 672.86 61.61 M669.07 70.66 C669.43 70.53, 669.82 69.75, 673.06 68.22 M668.86 71.84 C670.37 70.06, 670.96 69.42, 672.53 67.93" stroke="#eebefa" stroke-width="0.5" fill="none"/><path d="M1.56 -0.74 C189.95 2.92, 379.03 2.1, 670.57 -0.89 M-0.46 -0.03 C184.44 -3.14, 369.96 -2.65, 670.52 -0.66 M668.79 -0.56 C667.22 16.17, 669.91 33.63, 669.23 67.39 M670.3 -0.15 C670.14 17.94, 670.04 37.3, 671.01 71.37 M670.1 71.47 C513.71 74.24, 356.21 75.88, 1.36 71.53 M671.65 70.54 C481.94 75.2, 291.59 75.22, -0.49 70.2 M2.96 73.51 C-0.15 44.07, 0.78 17.84, 3.74 2 M1.13 70.79 C0.59 48.77, 0.23 25.11, -1.93 1.6" stroke="#1e1e1e" stroke-width="1" fill="none"/></g><g stroke-linecap="round" transform="translate(478.09765625 123.80859375) rotate(0 78.0390625 24.158203125)"><path d="M12.77 1.89 L150.24 2.52 L152.92 3.7 L154.3 8.62 L154.9 40.48 L152.48 47.71 L142.39 46.52 L7.96 49.18 L3.45 45.12 L1.42 37.63 L1.63 8.37 L3.63 1.45 L10.83 -0.69" stroke="none" stroke-width="0" fill="#e03131"/><path d="M12.08 0 M12.08 0 C60.85 0.53, 108.09 -1.32, 144 0 M12.08 0 C43.18 0.81, 75.46 0.35, 144 0 M144 0 C153.26 1.95, 155.51 4.87, 156.08 12.08 M144 0 C151.66 -0.56, 156.96 5.97, 156.08 12.08 M156.08 12.08 C156.38 17.34, 155.75 26.31, 156.08 36.24 M156.08 12.08 C156.59 18.45, 156.92 22.88, 156.08 36.24 M156.08 36.24 C154.34 46.1, 151.36 50.27, 144 48.32 M156.08 36.24 C154.1 45, 153.44 47.36, 144 48.32 M144 48.32 C109.71 46.32, 76.11 46.71, 12.08 48.32 M144 48.32 C91.44 48.99, 38.58 48.52, 12.08 48.32 M12.08 48.32 C4.52 47.06, 1.87 46.18, 0 36.24 M12.08 48.32 C3.35 50.14, 0.69 43.73, 0 36.24 M0 36.24 C0.24 29.51, 0.33 24.33, 0 12.08 M0 36.24 C-0.58 28.68, -0.94 22.25, 0 12.08 M0 12.08 C0.79 4.41, 2.58 -1.71, 12.08 0 M0 12.08 C0.49 5.9, 3.68 1.25, 12.08 0" stroke="#1e1e1e" stroke-width="1" fill="none"/></g><g stroke-linecap="round" transform="translate(5.2109375 7.9453125) rotate(0 335.517578125 35.103515625)"><path d="M16.26 -1.42 L657.58 2.14 L662.83 1.83 L670.08 10.2 L671 55.62 L667.96 66.41 L659.63 68.75 L653.2 71.5 L13.67 68.85 L5.31 68.42 L-0.57 58.79 L1.52 16.12 L2.59 8.51 L4.22 2.77 L10.21 1.53 L18.78 1.14" stroke="none" stroke-width="0" fill="#fab005"/><path d="M17.55 0 M17.55 0 C251.66 -0.12, 486.1 -0.12, 653.48 0 M17.55 0 C192.22 -0.22, 366.12 -0.08, 653.48 0 M653.48 0 C666.87 1.6, 669.76 6.76, 671.04 17.55 M653.48 0 C664.6 -2.26, 672.59 8.05, 671.04 17.55 M671.04 17.55 C671.12 25.54, 669.76 31.39, 671.04 52.66 M671.04 17.55 C671.6 29.39, 671.79 41.03, 671.04 52.66 M671.04 52.66 C672.91 64.43, 666.15 71.14, 653.48 70.21 M671.04 52.66 C672.36 63.44, 667.02 71.07, 653.48 70.21 M653.48 70.21 C456.04 72.73, 258.08 72.28, 17.55 70.21 M653.48 70.21 C513.79 71.83, 374.21 71.34, 17.55 70.21 M17.55 70.21 C4.74 71.76, -1.1 62.72, 0 52.66 M17.55 70.21 C6.68 72.22, -2.28 65.29, 0 52.66 M0 52.66 C-0.18 44.05, -0.08 35.62, 0 17.55 M0 52.66 C0.32 43.32, 0.14 32.81, 0 17.55 M0 17.55 C-1.83 5.43, 4.52 1.02, 17.55 0 M0 17.55 C-1.59 4.94, 6.82 -1.44, 17.55 0" stroke="#e03131" stroke-width="1" fill="none"/></g><g transform="translate(49.61328125 39.11328125) rotate(0 219.92987060546875 12.5)"><text x="0" y="0" font-family="Virgil, Segoe UI Emoji" font-size="20px" fill="#1e1e1e" text-anchor="start" style="white-space: pre;" direction="ltr" dominant-baseline="text-before-edge">HEADER - CLIENT SELECTION DROPDOWN</text></g><g stroke-linecap="round" transform="translate(22.6796875 97.09765625) rotate(0 324.07421875 56.2578125)"><path d="M28.13 0 M28.13 0 C233.36 1.48, 438.81 2.84, 620.02 0 M28.13 0 C193.56 -0.05, 359 -0.7, 620.02 0 M620.02 0 C639.34 1.1, 647.6 7.9, 648.15 28.13 M620.02 0 C636.58 -0.1, 647.01 10.22, 648.15 28.13 M648.15 28.13 C649.79 48.22, 646.56 65.97, 648.15 84.39 M648.15 28.13 C647.66 43.48, 647.49 59.02, 648.15 84.39 M648.15 84.39 C648.56 104.65, 637.66 111.71, 620.02 112.52 M648.15 84.39 C648.68 102.81, 637.05 111.8, 620.02 112.52 M620.02 112.52 C491.71 111.51, 363.38 111.98, 28.13 112.52 M620.02 112.52 C489.59 113.02, 358.54 112.89, 28.13 112.52 M28.13 112.52 C10.93 112.01, 0.57 101.33, 0 84.39 M28.13 112.52 C8.28 114.2, -0.08 101.72, 0 84.39 M0 84.39 C0.3 66.53, 0.15 47.84, 0 28.13 M0 84.39 C-0.78 63.9, -1.19 43.7, 0 28.13 M0 28.13 C-0.96 9.84, 10.17 -0.37, 28.13 0 M0 28.13 C-1.16 10.99, 8 -1.46, 28.13 0" stroke="#1e1e1e" stroke-width="1" fill="none"/></g><g stroke-linecap="round" transform="translate(50.08203125 122.560546875) rotate(0 70.359375 25.40625)"><path d="M14.65 -1.09 L133.3 1.42 L139.82 5.21 L142.13 9.97 L139.96 45.01 L134.15 48.32 L127.27 50.5 L6.78 48.82 L2.46 46.01 L-1 39.49 L0.02 9.77 L1.03 3.28 L6.37 2.77 L12.96 1.34" stroke="none" stroke-width="0" fill="#b2f2bb"/><path d="M12.7 0 M12.7 0 C43.53 -0.83, 78.26 1.17, 128.02 0 M12.7 0 C52.86 -0.88, 93.79 -0.74, 128.02 0 M128.02 0 C136.62 -0.37, 141.46 3.67, 140.72 12.7 M128.02 0 C138.56 -0.93, 140.1 2.79, 140.72 12.7 M140.72 12.7 C140.67 20.99, 139.51 32.34, 140.72 38.11 M140.72 12.7 C140.77 19.2, 139.86 26.23, 140.72 38.11 M140.72 38.11 C142.2 46.06, 135.24 50.86, 128.02 50.81 M140.72 38.11 C142.65 46.07, 137.96 49.32, 128.02 50.81 M128.02 50.81 C91.12 51.29, 52.1 51.07, 12.7 50.81 M128.02 50.81 C93.31 51.03, 57.63 51.4, 12.7 50.81 M12.7 50.81 C3.23 52.05, -1.51 47.27, 0 38.11 M12.7 50.81 C6.41 51.91, 2.04 46.42, 0 38.11 M0 38.11 C-0.22 28.58, 1.32 22.22, 0 12.7 M0 38.11 C1.04 32.75, 0.14 27.58, 0 12.7 M0 12.7 C-1.44 5.68, 3.35 0.61, 12.7 0 M0 12.7 C-1.81 2.79, 3.44 1.34, 12.7 0" stroke="#1e1e1e" stroke-width="1" fill="none"/></g><g transform="translate(85.60546875 134.23828125) rotate(0 35.499977111816406 12.5)"><text x="0" y="0" font-family="Virgil, Segoe UI Emoji" font-size="20px" fill="#1e1e1e" text-anchor="start" style="white-space: pre;" direction="ltr" dominant-baseline="text-before-edge">START</text></g><g transform="translate(524.3359375 131.203125) rotate(0 27.989974975585938 12.5)"><text x="0" y="0" font-family="Virgil, Segoe UI Emoji" font-size="20px" fill="#1e1e1e" text-anchor="start" style="white-space: pre;" direction="ltr" dominant-baseline="text-before-edge">STOP</text></g><g transform="translate(214.421875 140.89453125) rotate(0 126.04989624023438 12.5)"><text x="0" y="0" font-family="Virgil, Segoe UI Emoji" font-size="20px" fill="#1e1e1e" text-anchor="start" style="white-space: pre;" direction="ltr" dominant-baseline="text-before-edge">TIMER (counting minutes)</text></g><g stroke-linecap="round" transform="translate(205.75 123.416015625) rotate(0 131.22265625 24.55078125)"><path d="M12.28 0 M12.28 0 C78.6 -0.4, 141 -0.53, 250.17 0 M12.28 0 C90.1 -0.9, 169.56 -2.05, 250.17 0 M250.17 0 C258.96 -1.9, 262.99 4.75, 262.45 12.28 M250.17 0 C257.05 1.51, 262.1 6.36, 262.45 12.28 M262.45 12.28 C260.67 18.95, 263.96 28.14, 262.45 36.83 M262.45 12.28 C262.33 18.01, 262.74 24.48, 262.45 36.83 M262.45 36.83 C264.17 46.97, 256.65 49.18, 250.17 49.1 M262.45 36.83 C262.25 43.67, 258.57 49.33, 250.17 49.1 M250.17 49.1 C176.65 47.4, 106.95 50.12, 12.28 49.1 M250.17 49.1 C165.32 50.99, 81.85 50.79, 12.28 49.1 M12.28 49.1 C5.61 48.49, 0.53 45.67, 0 36.83 M12.28 49.1 C3.63 50.51, -1.61 44.77, 0 36.83 M0 36.83 C-0.39 30.09, 0.9 23.14, 0 12.28 M0 36.83 C0.06 31.44, -0.14 25.23, 0 12.28 M0 12.28 C-1.44 5.16, 2.52 -1.96, 12.28 0 M0 12.28 C-0.73 2.51, 5.91 1.09, 12.28 0" stroke="#1e1e1e" stroke-width="1" fill="none"/></g></svg>